<svg width="250" height="211" viewBox="0 0 250 211" fill="none" xmlns="http://www.w3.org/2000/svg">
<path d="M167.269 28.036C167.312 27.9379 179.878 -0.973219 196.456 0.0252686C213.042 1.02513 218.082 18.9925 218.093 19.0331L245.77 102.066C245.836 102.238 263.813 149.095 225.138 154.588C186.441 160.083 196.43 108.7 196.456 108.569C196.482 108.479 203.985 83.0375 193.939 71.0536C183.882 59.0581 174.327 83.5254 174.314 83.5594C174.254 83.7039 162.169 112.689 150.664 126.577C146.905 131.114 142.87 134.012 139.138 135.859L161.603 158.324C167.851 164.572 167.851 174.704 161.603 180.952L136.591 205.964C130.343 212.212 120.212 212.212 113.963 205.964L88.9517 180.952C82.7033 174.704 82.7034 164.572 88.9517 158.324L111.235 136.04C107.401 134.203 103.221 131.266 99.3364 126.577C87.835 112.694 75.7546 83.7262 75.6851 83.5594C75.6652 83.5086 66.1137 59.0623 56.0601 71.0546C46.0135 83.0394 53.519 108.483 53.5444 108.569C53.582 108.762 63.5343 160.08 24.8608 154.589C-13.8081 149.097 4.15802 102.254 4.22998 102.067L31.9058 19.0331C31.9118 19.0116 36.9486 1.0252 53.5444 0.0252686C70.1096 -0.971659 82.6691 27.8959 82.73 28.036C96.848 52.9882 104.5 89.9987 125 90.9989C145.499 89.9983 153.151 52.9881 167.269 28.036ZM76.4985 116.999C87.2373 116.999 95.9429 125.953 95.9429 136.999C95.9428 148.044 87.2373 156.999 76.4985 156.999C65.7601 156.999 57.0543 148.044 57.0542 136.999C57.0542 125.953 65.76 116.999 76.4985 116.999ZM173.371 116.944C184.084 116.944 192.769 125.911 192.769 136.972C192.769 148.032 184.084 156.999 173.371 156.999C162.658 156.999 153.972 148.032 153.972 136.972C153.972 125.911 162.658 116.944 173.371 116.944Z" fill="#702EFF"/>
</svg>
