<svg width="380" height="101" viewBox="0 0 380 101" fill="none" xmlns="http://www.w3.org/2000/svg">
<path d="M76.5 0L0 100.5H34C34 100.5 25.5 92.5 34 81.5C42.5 70.5 63 65.5 63 65.5C63 65.5 81 62 95 55.5C109 49 104.5 37.5 104.5 37.5L76.5 0Z" fill="#0D7D89"/>
<path d="M95 68C112.5 65.5 114 48.5 114 48.5L153 100.5H81.5C81.5 100.5 68.5 96 67.5 87C66.5 78 77.5 70.5 95 68Z" fill="#0D7D89"/>
<path d="M194.088 46.424C190.632 44.504 187.133 43.1813 183.592 42.456V75.544H168.488V42.456C164.947 43.1813 161.448 44.504 157.992 46.424L153 35.672C156.2 33.752 159.784 32.28 163.752 31.256C167.72 30.232 171.816 29.72 176.04 29.72C180.264 29.72 184.36 30.232 188.328 31.256C192.296 32.28 195.88 33.752 199.08 35.672L194.088 46.424Z" fill="#0D7D89"/>
<path d="M214.237 44.312C216.797 41.368 220.573 39.896 225.565 39.896V52.696C224.413 52.5253 223.346 52.44 222.365 52.44C217.416 52.44 214.941 54.9573 214.941 59.992V75.544H200.477V40.536H214.237V44.312Z" fill="#0D7D89"/>
<path d="M267.752 40.536V75.544H253.992V72.664C251.901 75.0107 248.701 76.184 244.392 76.184C241.32 76.184 238.483 75.4587 235.88 74.008C233.32 72.5147 231.272 70.3813 229.736 67.608C228.243 64.8347 227.496 61.6347 227.496 58.008C227.496 54.3813 228.243 51.2027 229.736 48.472C231.272 45.6987 233.32 43.5867 235.88 42.136C238.483 40.6427 241.32 39.896 244.392 39.896C248.275 39.896 251.24 40.8987 253.288 42.904V40.536H267.752ZM247.848 64.92C249.512 64.92 250.877 64.3227 251.944 63.128C253.011 61.8907 253.544 60.184 253.544 58.008C253.544 55.832 253.011 54.1467 251.944 52.952C250.877 51.7573 249.512 51.16 247.848 51.16C246.184 51.16 244.819 51.7573 243.752 52.952C242.685 54.1467 242.152 55.832 242.152 58.008C242.152 60.184 242.685 61.8907 243.752 63.128C244.819 64.3227 246.184 64.92 247.848 64.92Z" fill="#0D7D89"/>
<path d="M274.164 40.536H288.628V75.544H274.164V40.536ZM281.396 37.72C278.794 37.72 276.682 37.0373 275.061 35.672C273.482 34.264 272.692 32.4933 272.692 30.36C272.692 28.2267 273.482 26.4773 275.061 25.112C276.682 23.704 278.794 23 281.396 23C284.042 23 286.154 23.6613 287.732 24.984C289.311 26.3067 290.1 28.0133 290.1 30.104C290.1 32.3227 289.311 34.1573 287.732 35.608C286.154 37.016 284.042 37.72 281.396 37.72Z" fill="#0D7D89"/>
<path d="M309.695 76.184C305.087 76.184 301.482 75.032 298.88 72.728C296.32 70.3813 295.04 67.0107 295.04 62.616V28.056H309.503V61.848C309.503 62.9573 309.781 63.8107 310.335 64.408C310.89 64.9627 311.68 65.24 312.704 65.24C313.173 65.24 313.642 65.176 314.111 65.048C314.623 64.92 315.029 64.7707 315.327 64.6L315.904 75.288C313.856 75.8853 311.786 76.184 309.695 76.184Z" fill="#0D7D89"/>
<path d="M319.727 40.536H334.191V75.544H319.727V40.536ZM326.959 37.72C324.356 37.72 322.244 37.0373 320.623 35.672C319.044 34.264 318.255 32.4933 318.255 30.36C318.255 28.2267 319.044 26.4773 320.623 25.112C322.244 23.704 324.356 23 326.959 23C329.604 23 331.716 23.6613 333.295 24.984C334.874 26.3067 335.663 28.0133 335.663 30.104C335.663 32.3227 334.874 34.1573 333.295 35.608C331.716 37.016 329.604 37.72 326.959 37.72Z" fill="#0D7D89"/>
<path d="M364.922 39.896C369.231 39.896 372.687 41.1973 375.29 43.8C377.935 46.4027 379.258 50.328 379.258 55.576V75.544H364.794V58.072C364.794 54.0613 363.365 52.056 360.506 52.056C358.885 52.056 357.562 52.632 356.538 53.784C355.557 54.8933 355.066 56.664 355.066 59.096V75.544H340.602V40.536H354.362V43.992C355.727 42.6267 357.306 41.6027 359.098 40.92C360.89 40.2373 362.831 39.896 364.922 39.896Z" fill="#0D7D89"/>
</svg>
