<svg width="250" height="155" viewBox="0 0 250 155" fill="none" xmlns="http://www.w3.org/2000/svg">
<path d="M76.4987 118.999C86.1636 118.999 93.9987 127.058 93.9987 136.999C93.9986 146.94 86.1636 154.999 76.4987 154.999C66.8339 154.999 58.9987 146.94 58.9987 136.999C58.9987 127.058 66.8339 118.999 76.4987 118.999ZM174.499 118.999C184.164 118.999 191.999 127.058 191.999 136.999C191.999 146.94 184.164 154.999 174.499 154.999C164.834 154.999 156.999 146.94 156.999 136.999C156.999 127.058 164.834 118.999 174.499 118.999ZM167.269 28.036C167.312 27.9379 179.878 -0.973414 196.456 0.0252991C213.061 1.02629 218.093 19.0331 218.093 19.0331L245.77 102.066C245.836 102.238 263.813 149.095 225.138 154.588C186.439 160.083 196.431 108.697 196.456 108.569C196.482 108.479 203.985 83.0375 193.939 71.0536C183.882 59.0579 174.327 83.5254 174.314 83.5595C174.256 83.6978 162.171 112.687 150.664 126.577C139.171 140.449 125.101 139.01 125 138.999C125 138.999 110.871 140.499 99.3365 126.577C87.8351 112.694 75.7547 83.7262 75.6852 83.5595C75.6852 83.5595 66.1243 59.0498 56.0602 71.0546C46.0106 83.0429 53.5235 108.498 53.5446 108.569C53.5821 108.762 63.5345 160.08 24.861 154.589C-13.811 149.097 4.16065 102.248 4.2301 102.067L31.9059 19.0331C31.9119 19.0117 36.9486 1.02511 53.5446 0.0252991C70.1131 -0.971835 82.6744 27.9078 82.7301 28.036C96.8482 52.9883 104.5 89.9989 125 90.9989C145.499 89.9983 153.151 52.9881 167.269 28.036Z" fill="#702EFF"/>
</svg>
