<svg width="1024" height="1024" viewBox="0 0 1024 1024" fill="none" xmlns="http://www.w3.org/2000/svg">
  <title>Marlen</title>
  <!-- Apple icon grid: 824px rounded tile centered on a transparent 1024 canvas. -->
  <rect x="100" y="100" width="824" height="824" rx="186" fill="#FCFCFC"/>
  <!-- Marlen mark (apps/web/public/logo.svg), centered at ~63% tile width. -->
  <g transform="translate(512 512) scale(1.8) translate(-144 -121.5)">
    <path d="M287.5 209.11L233.5 196V62L199.397 89.7686C203.122 140.432 188.802 161.012 159.5 193C181.351 207.946 194.768 213.957 220.5 221V242.5C187.319 232.254 170.058 224.803 144 205.5C115.914 225.35 99.0324 232.634 68 242.5V221C91.4174 214.135 104.656 208.182 128.5 193C96.1303 161.068 85.12 125.771 88.96 89.5791L54 62V196L0 209.11L34 0L144 101L166.5 82L167.462 85.3242L174.5 106L144.5 133L144.995 131.861L144 133L107.138 103.92C108.764 130.39 118.819 140.393 144 169C193.5 119.5 193.5 76.5 144 30C130.558 41.009 125.106 48.1837 117.5 62L101.5 48.5C115.105 29.9676 123.726 20.0253 144 4.5C168.022 23.9409 178.472 35.721 191 58.5L253.5 0L287.5 209.11Z" fill="#702EFF"/>
  </g>
</svg>
