<svg width="1024" height="1024" viewBox="0 0 1024 1024" fill="none" xmlns="http://www.w3.org/2000/svg">
  <title>Trailin</title>
  <!-- Apple icon grid: 824px rounded tile centered on a transparent 1024 canvas. -->
  <rect x="100" y="100" width="824" height="824" rx="186" fill="#FCFCFC"/>
  <!-- Trailin mark (apps/web/public/logo.svg), centered at ~63% tile width. -->
  <g transform="translate(512 512) scale(3.4) translate(-76.5 -50.25)">
    <path d="M76.5 0L0 100.5H34C34 100.5 25.5 92.5 34 81.5C42.5 70.5 63 65.5 63 65.5C63 65.5 81 62 95 55.5C109 49 104.5 37.5 104.5 37.5L76.5 0Z" fill="#8766FF"/>
    <path d="M95 68C112.5 65.5 114 48.5 114 48.5L153 100.5H81.5C81.5 100.5 68.5 96 67.5 87C66.5 78 77.5 70.5 95 68Z" fill="#8766FF"/>
  </g>
</svg>
